<svg width="202" height="202" viewBox="0 0 202 202" fill="none" xmlns="http://www.w3.org/2000/svg">
<g id="Group 75">
<g id="Group 67">
<g id="Group 20815">
<g id="Rectangle 35" filter="url(#filter0_d_4_1617)">
<rect x="15" y="11" width="172" height="172" rx="86" fill="#E7F1F1"/>
<rect x="13.5" y="9.5" width="175" height="175" rx="87.5" stroke="#00CDC0" stroke-width="3"/>
</g>
<rect id="Rectangle 36" x="24.3687" y="20.3687" width="153.262" height="153.262" rx="76.6311" fill="#F7FBFA" stroke="#00CDC0"/>
</g>
<path id="Vector" fill-rule="evenodd" clip-rule="evenodd" d="M78.0804 88.302H98.4462C99.0674 88.302 99.5712 87.7983 99.5712 87.177V77.9269C99.5712 75.4278 97.6872 73.5273 94.4024 72.7125C93.3418 72.4494 92.282 72.2546 91.2249 72.1262C92.87 70.8706 93.9706 68.6024 93.9706 66.0185C93.9706 64.1456 93.3834 62.6058 92.2723 61.5656C91.2656 60.6231 89.8793 60.125 88.2632 60.125C86.6472 60.125 85.2609 60.6231 84.2542 61.5657C83.1431 62.6059 82.5558 64.1456 82.5558 66.0186C82.5558 68.5975 83.6523 70.8614 85.292 72.1186C84.2256 72.2472 83.1659 72.4447 82.115 72.7149C78.8359 73.5578 76.9553 75.4575 76.9553 77.9269V87.177C76.9554 87.7984 77.459 88.302 78.0804 88.302ZM88.2632 62.375C89.8405 62.375 91.7205 63.0071 91.7205 66.0185C91.7205 68.6732 90.1372 70.916 88.2632 70.916C86.3893 70.916 84.806 68.6732 84.806 66.0185C84.806 63.0071 86.686 62.375 88.2632 62.375ZM79.2054 77.9269C79.2054 76.1574 81.0923 75.3008 82.6754 74.894C86.3166 73.9576 90.0798 73.9584 93.8607 74.8964C95.153 75.2169 97.3212 76.0369 97.3212 77.927V86.0522H94.9439V80.0535C94.9439 79.4322 94.4402 78.9285 93.8189 78.9285C93.1976 78.9285 92.6939 79.4322 92.6939 80.0535V86.0522H83.8326V80.0535C83.8326 79.4322 83.3288 78.9285 82.7076 78.9285C82.0863 78.9285 81.5826 79.4322 81.5826 80.0535V86.0522H79.2054V77.9269ZM103.554 88.302H123.92C124.541 88.302 125.045 87.7983 125.045 87.177V77.9269C125.045 75.4278 123.161 73.5273 119.876 72.7125C118.815 72.4494 117.755 72.2546 116.698 72.1262C118.343 70.8706 119.444 68.6024 119.444 66.0185C119.444 64.1456 118.857 62.6058 117.746 61.5656C116.739 60.6231 115.353 60.125 113.737 60.125C112.121 60.125 110.734 60.6231 109.728 61.5657C108.617 62.6058 108.029 64.1456 108.029 66.0186C108.029 68.5975 109.126 70.8616 110.765 72.1186C109.699 72.2472 108.639 72.4447 107.588 72.7149C104.309 73.5578 102.429 75.4575 102.429 77.9269V87.177C102.429 87.7984 102.932 88.302 103.554 88.302ZM113.737 62.375C115.314 62.375 117.194 63.0071 117.194 66.0185C117.194 68.6732 115.611 70.916 113.737 70.916C111.862 70.916 110.279 68.6732 110.279 66.0185C110.279 63.0071 112.159 62.375 113.737 62.375ZM104.679 77.9269C104.679 76.1574 106.566 75.3008 108.149 74.894C111.79 73.9574 115.553 73.9583 119.334 74.8964C120.626 75.217 122.795 76.0369 122.795 77.927V86.0522H120.417V80.0535C120.417 79.4322 119.914 78.9285 119.292 78.9285C118.671 78.9285 118.167 79.4322 118.167 80.0535V86.0522H109.306V80.0535C109.306 79.4322 108.802 78.9285 108.181 78.9285C107.56 78.9285 107.056 79.4322 107.056 80.0535V86.0522H104.679V77.9269ZM130.678 108.665L123.646 91.6109C123.367 90.9342 122.84 90.4062 122.161 90.1238C121.482 89.8414 120.736 89.8396 120.06 90.1186L116.776 91.4721C115.376 92.0495 114.707 93.6584 115.284 95.0585L115.657 95.9631L113.666 97.0291C112.681 97.5416 111.671 97.1736 109.972 96.4792C107.617 95.5165 104.435 94.219 100.287 96.7391C97.2729 95.0027 94.7074 95.6079 92.6192 96.1012C91.0652 96.4683 89.8375 96.7582 88.6871 96.1108C88.6608 96.096 88.6341 96.0824 88.6066 96.0697L86.3603 95.0333L86.7159 94.1709C87.2932 92.7707 86.6237 91.1619 85.2236 90.5845L81.9407 89.231C81.264 88.9519 80.5176 88.9537 79.8391 89.2361C79.1606 89.5184 78.6332 90.0466 78.3542 90.7233L71.3221 107.778C70.7449 109.178 71.4142 110.787 72.8145 111.364L76.0975 112.718C76.4337 112.857 76.7871 112.926 77.1408 112.926C77.499 112.926 77.8575 112.855 78.199 112.713C78.8775 112.43 79.4048 111.902 79.6838 111.226L79.8422 110.842C81.0137 111.362 81.3564 111.504 81.5076 111.563C81.8572 111.699 81.9787 112.17 82.1555 113.139C82.2495 113.656 82.3553 114.219 82.5745 114.744L81.7109 116.359C80.7319 118.189 81.4246 120.475 83.255 121.454C83.8051 121.748 84.407 121.897 85.0155 121.898C84.9501 122.417 84.9931 122.948 85.1497 123.465C85.4419 124.429 86.0897 125.22 86.9738 125.693C87.5252 125.988 88.1288 126.138 88.7388 126.138C89.1068 126.138 89.4774 126.083 89.8402 125.974C90.0592 125.907 90.2685 125.822 90.468 125.72C90.8125 126.422 91.3636 126.997 92.0636 127.371C92.615 127.666 93.2186 127.816 93.8286 127.816C94.1966 127.816 94.5672 127.761 94.9301 127.651C95.0366 127.619 95.1405 127.582 95.2426 127.541C95.5628 128.323 96.1462 129.003 96.9482 129.432C97.4998 129.727 98.1032 129.877 98.7134 129.877C99.0814 129.877 99.4519 129.822 99.8149 129.712C100.566 129.484 101.212 129.04 101.685 128.437L102.782 129.04C103.356 129.356 103.977 129.506 104.59 129.506C105.92 129.506 107.21 128.801 107.895 127.556C108.219 126.967 108.366 126.328 108.357 125.699C108.447 125.705 108.536 125.709 108.625 125.709C109.955 125.709 111.245 125.005 111.93 123.76C112.233 123.208 112.381 122.611 112.389 122.018C112.588 122.05 112.787 122.068 112.986 122.068C114.315 122.068 115.606 121.363 116.29 120.118C116.801 119.189 116.872 118.131 116.574 117.184C117.484 116.883 118.234 116.263 118.696 115.422C119.087 114.712 119.219 113.923 119.124 113.166L122.207 111.851L122.315 112.114C122.594 112.79 123.122 113.318 123.8 113.601C124.142 113.743 124.5 113.814 124.858 113.814C125.212 113.814 125.566 113.745 125.902 113.606L129.185 112.252C130.585 111.674 131.255 110.066 130.678 108.665ZM77.6037 110.368C77.5364 110.531 77.4063 110.606 77.3346 110.636C77.2631 110.665 77.1184 110.705 76.9552 110.638L73.6721 109.284C73.5089 109.217 73.4345 109.087 73.4047 109.015C73.3748 108.944 73.3349 108.799 73.4023 108.636L80.4341 91.5814C80.5014 91.4181 80.6317 91.3437 80.7032 91.3139C80.746 91.2962 80.8147 91.2747 80.898 91.2747C80.9541 91.2747 81.0168 91.2844 81.0826 91.3115L84.3657 92.6651C84.6147 92.7677 84.7382 93.0647 84.6355 93.3136L77.6037 110.368ZM83.6952 117.42L85.3713 114.286C85.6437 113.777 86.1676 113.486 86.709 113.486C86.9505 113.486 87.1953 113.544 87.423 113.666C87.7751 113.853 88.0342 114.17 88.1523 114.559C88.271 114.95 88.232 115.36 88.0426 115.714L86.3637 118.853C86.174 119.205 85.8567 119.463 85.4693 119.581C85.08 119.698 84.6708 119.659 84.3166 119.47C83.58 119.076 83.3014 118.156 83.6952 117.42ZM89.1881 123.82C88.7989 123.938 88.3895 123.899 88.0354 123.709C87.6812 123.52 87.4212 123.201 87.3033 122.812C87.1853 122.423 87.2247 122.014 87.4141 121.659L89.6873 117.41C89.9603 116.902 90.4829 116.613 91.0231 116.613C91.2645 116.613 91.5094 116.671 91.737 116.793C92.0891 116.98 92.3481 117.297 92.4662 117.686C92.5849 118.077 92.546 118.487 92.3567 118.841C92.3567 118.841 92.3567 118.841 92.3567 118.841L90.0855 123.088C89.8959 123.442 89.5772 123.702 89.1881 123.82ZM94.2779 125.498C93.8887 125.616 93.4794 125.576 93.1251 125.387C92.771 125.197 92.511 124.879 92.393 124.49C92.275 124.101 92.3144 123.691 92.5039 123.337C92.5039 123.337 94.3391 119.905 94.3405 119.903C94.728 119.178 95.6687 118.896 96.3919 119.283C96.744 119.47 97.0031 119.788 97.1212 120.176C97.24 120.567 97.2011 120.977 97.0115 121.332L95.175 124.766C94.9857 125.12 94.667 125.38 94.2779 125.498ZM99.1625 127.559C98.7733 127.677 98.3639 127.637 98.0097 127.448C97.2734 127.054 96.9946 126.134 97.3885 125.398L98.9956 122.393C99.1849 122.039 99.5035 121.779 99.8926 121.661C100.282 121.543 100.691 121.582 101.047 121.772C101.387 121.954 101.663 122.294 101.776 122.666C101.895 123.057 101.856 123.467 101.667 123.822L100.06 126.827C99.8703 127.181 99.5516 127.441 99.1625 127.559ZM105.924 126.471C105.521 127.203 104.599 127.471 103.867 127.068L102.797 126.48L103.651 124.883C103.848 124.514 103.979 124.121 104.045 123.719L105.456 124.495C106.087 124.933 106.3 125.787 105.924 126.471ZM116.725 114.337C116.528 114.695 116.201 114.955 115.803 115.068C115.417 115.177 115.019 115.132 114.679 114.94L108.135 111.244C107.594 110.938 106.908 111.129 106.602 111.67C106.297 112.211 106.487 112.897 107.028 113.203C107.028 113.203 113.677 116.955 113.729 116.981C114.449 117.399 114.715 118.314 114.319 119.033C113.917 119.765 112.995 120.033 112.262 119.63L104.821 115.48C104.279 115.176 103.593 115.367 103.289 115.909C102.984 116.45 103.176 117.136 103.717 117.441L109.352 120.613C110.085 121.025 110.357 121.951 109.959 122.675C109.557 123.407 108.634 123.675 107.902 123.272L103.193 120.662C102.892 120.308 102.526 120.011 102.107 119.788C101.231 119.319 100.223 119.218 99.2669 119.5C98.9706 118.546 98.3262 117.764 97.4514 117.298C96.5753 116.829 95.5683 116.728 94.6116 117.01C94.3153 116.056 93.6711 115.274 92.7963 114.808C92.041 114.404 91.2083 114.286 90.422 114.413C90.3945 114.243 90.356 114.073 90.305 113.905C90.0118 112.941 89.3639 112.15 88.4825 111.681C87.0751 110.928 85.399 111.165 84.2543 112.146C84.0345 111.124 83.6235 109.971 82.3221 109.466C82.1819 109.411 81.7755 109.239 80.7004 108.761L85.5019 97.1158L87.6254 98.0954C89.5267 99.1441 91.3616 98.7107 93.1364 98.2915C94.8055 97.8972 96.4006 97.5214 98.2397 98.2427C97.8501 98.5786 97.4622 98.94 97.0787 99.3274C95.3091 101.116 93.0452 102.805 90.3501 104.349C90.0729 104.508 89.8763 104.777 89.8094 105.089C89.7425 105.402 89.8112 105.728 89.9988 105.986C93.6518 111.02 97.9447 109.282 101.394 107.886C103.598 106.994 105.501 106.223 106.984 107.068L116.113 112.272C116.847 112.69 117.122 113.616 116.725 114.337ZM118.203 111.112C117.931 110.802 117.604 110.532 117.227 110.317L108.098 105.113C105.668 103.728 103.066 104.781 100.55 105.8C97.1641 107.171 94.8483 107.928 92.6147 105.621C94.99 104.161 97.0256 102.58 98.6782 100.91C99.4134 100.167 100.159 99.5323 100.895 99.0236C104.371 96.6206 106.786 97.6076 109.121 98.5623C110.903 99.2907 112.746 100.044 114.716 99.0193L116.519 98.0541L121.35 109.771L118.203 111.112ZM128.328 110.172L125.045 111.525C124.881 111.593 124.737 111.553 124.665 111.523C124.594 111.493 124.463 111.419 124.396 111.255L117.364 94.2011C117.262 93.9521 117.385 93.6551 117.634 93.5524L120.917 92.1989C120.983 92.1717 121.046 92.162 121.102 92.162C121.185 92.162 121.254 92.1836 121.297 92.2013C121.368 92.2311 121.498 92.3055 121.566 92.4686L128.598 109.523C128.7 109.772 128.577 110.069 128.328 110.172ZM121.227 94.9092C121.24 95.5185 120.756 96.0229 120.147 96.0358C119.538 96.0488 119.034 95.5653 119.021 94.9561C119.008 94.3468 119.491 93.8425 120.1 93.8296C120.709 93.8165 121.214 94.3 121.227 94.9092ZM82.9792 94.0688C82.9663 94.678 82.4619 95.1614 81.8527 95.1485C81.2434 95.1356 80.76 94.6311 80.773 94.0218C80.7859 93.4125 81.2903 92.9292 81.8995 92.9421C82.5089 92.955 82.9922 93.4594 82.9792 94.0688Z" fill="url(#paint0_linear_4_1617)"/>
</g>
</g>
<defs>
<filter id="filter0_d_4_1617" x="0" y="0" width="202" height="202" filterUnits="userSpaceOnUse" color-interpolation-filters="sRGB">
<feFlood flood-opacity="0" result="BackgroundImageFix"/>
<feColorMatrix in="SourceAlpha" type="matrix" values="0 0 0 0 0 0 0 0 0 0 0 0 0 0 0 0 0 0 127 0" result="hardAlpha"/>
<feOffset dy="4"/>
<feGaussianBlur stdDeviation="6"/>
<feComposite in2="hardAlpha" operator="out"/>
<feColorMatrix type="matrix" values="0 0 0 0 0.00784314 0 0 0 0 0.65098 0 0 0 0 0.607843 0 0 0 0.1 0"/>
<feBlend mode="normal" in2="BackgroundImageFix" result="effect1_dropShadow_4_1617"/>
<feBlend mode="normal" in="SourceGraphic" in2="effect1_dropShadow_4_1617" result="shape"/>
</filter>
<linearGradient id="paint0_linear_4_1617" x1="71.1147" y1="68.8439" x2="134.237" y2="73.4147" gradientUnits="userSpaceOnUse">
<stop stop-color="#00CDC0"/>
<stop offset="1" stop-color="#02A69B"/>
</linearGradient>
</defs>
</svg>
