<svg width="202" height="202" viewBox="0 0 202 202" fill="none" xmlns="http://www.w3.org/2000/svg">
<g id="Group 75">
<g id="Group 67">
<g id="Group 20815">
<g id="Rectangle 35" filter="url(#filter0_d_4_1607)">
<rect x="15" y="11" width="172" height="172" rx="86" fill="#E7F1F1"/>
<rect x="13.5" y="9.5" width="175" height="175" rx="87.5" stroke="#00CDC0" stroke-width="3"/>
</g>
<rect id="Rectangle 36" x="24.3687" y="20.3687" width="153.262" height="153.262" rx="76.6311" fill="#F7FBFA" stroke="#00CDC0"/>
</g>
<g id="Vector">
<path d="M94.147 84.5401C93.8376 84.5401 93.5329 84.4135 93.3219 84.1839C93.1626 84.0152 93.0688 83.8277 92.9234 83.5418C92.689 83.0777 92.2531 82.2106 91.3578 81.0761C90.9874 80.6074 90.8421 80.4528 90.7484 80.359C90.6969 80.3121 90.5984 80.2183 90.4578 80.1011C90.2657 80.2886 90.05 80.4526 89.825 80.5979C88.8313 81.2166 87.8515 81.1932 87.1344 81.1745H87.0875C87.0641 81.1745 84.9312 81.1277 82.6579 81.2823L82.55 81.2917C81.8001 81.3432 81.0922 81.3902 80.5625 81.6715C80.0938 81.9199 79.7985 82.5012 79.6109 83.5558C79.5358 83.9777 79.2358 84.3292 78.8375 84.4699C78.3453 84.6433 77.8203 84.4792 77.4969 84.0526C77.0141 83.4152 76.9203 82.5621 76.8594 81.9995V81.9808C76.7469 80.9589 76.6063 79.1307 76.9345 78.3574C77.1126 77.9355 77.6423 76.8387 78.7533 75.7651C80.9143 73.6746 84.4533 72.8589 85.1424 72.7183C86.483 72.4417 87.7674 72.3385 88.958 72.423C89.7971 72.4791 90.5049 72.587 91.133 72.7464C92.0049 72.9667 92.694 73.4027 93.1252 74.0027C93.3456 74.312 93.4767 74.6167 93.594 74.8886C93.6878 75.1041 93.7674 75.2964 93.8565 75.3901C94.0065 75.5494 94.2269 75.7088 94.4565 75.8729C94.733 76.0697 95.0471 76.2947 95.333 76.5854C96.0315 77.2979 96.8189 78.4932 96.9455 79.7167C97.0627 80.8745 96.5704 81.8589 96.1251 82.5902C96.0736 82.6746 95.8392 83.0401 95.6048 83.3823C95.1595 84.0338 94.8642 84.465 94.2735 84.5307C94.2266 84.5401 94.1891 84.5401 94.147 84.5401ZM90.2469 77.5136C90.7203 77.5136 91.0954 77.7761 91.3156 77.9308L91.3344 77.9448C91.8171 78.2823 92.1594 78.5963 92.3235 78.7558C92.5016 78.9292 92.7032 79.1543 93.1251 79.6886C93.6125 80.3073 93.9829 80.8511 94.2642 81.3151C94.6016 80.7339 94.7376 80.312 94.7001 79.9464C94.6486 79.4402 94.2361 78.6901 93.7204 78.1652C93.5704 78.0105 93.3642 77.8652 93.1438 77.7059C92.8485 77.495 92.5111 77.2559 92.2064 76.9278C91.8455 76.5434 91.6626 76.1121 91.5173 75.77C91.4375 75.5825 91.3673 75.4185 91.2875 75.3106C91.175 75.1513 90.9125 75.0106 90.5703 74.9262C90.0782 74.7996 89.497 74.7153 88.7938 74.6683C87.8094 74.5981 86.7313 74.6871 85.5876 74.9215C83.9844 75.2543 81.636 76.0981 80.3048 77.3871C79.5127 78.1512 79.1329 78.9247 79.0157 79.1965C78.9923 79.3137 78.9689 79.5949 78.9736 80.0309C79.1329 79.9043 79.3063 79.7918 79.4986 79.6887C80.4503 79.1825 81.4815 79.1122 82.3908 79.0466L82.4987 79.0372C84.8846 78.8732 87.0502 78.92 87.1393 78.9247H87.1908C87.744 78.9387 88.2174 78.9481 88.6393 78.6856C88.8597 78.5496 89.0471 78.3528 89.2018 78.095C89.3752 77.809 89.6565 77.6075 89.9846 77.5371C90.0735 77.5229 90.1625 77.5136 90.2469 77.5136ZM91.1282 79.2573C91.1282 79.262 91.1235 79.262 91.1235 79.2667C91.1235 79.2667 91.1235 79.262 91.1282 79.2573Z" fill="url(#paint0_linear_4_1607)"/>
<path d="M86.7407 96.6338C86.225 96.6338 85.6438 96.5823 85.0157 96.4464C84.4532 96.3245 83 95.9073 81.5703 94.7401C80.8859 94.1776 79.6297 92.9448 78.9172 90.962C78.7532 90.5073 78.6407 90.0292 78.5657 89.6495C77.4454 89.0776 76.5875 87.9713 76.2969 86.6681C75.9595 85.1399 76.475 83.6447 77.7126 82.5619C78.1813 82.1541 78.8891 82.2009 79.3017 82.6698C79.7095 83.1385 79.6625 83.8463 79.1938 84.2588C78.4157 84.9386 78.3828 85.6792 78.4953 86.1854C78.6594 86.926 79.2313 87.5729 79.8829 87.7651C80.3095 87.887 80.6235 88.2525 80.6845 88.6931C80.7361 89.0823 80.8626 89.7103 81.036 90.1978C81.5845 91.726 82.5877 92.6634 82.9954 92.9962C84.0781 93.8821 85.1844 94.1774 85.4984 94.2478C86.6422 94.501 87.5843 94.3369 87.936 94.2525C88.8923 94.0274 89.5485 93.5774 89.825 93.3853C90.0266 93.2493 90.5516 92.8556 91.0907 92.2181C91.8735 91.2947 92.45 90.0291 92.7642 88.5572C92.8627 88.1072 93.2236 87.7604 93.6782 87.6806C94.1516 87.6009 94.7892 86.6635 94.8595 85.6837C94.9297 84.6946 94.4189 84.5306 94.2501 84.4791C93.6595 84.2869 93.3314 83.654 93.5236 83.0634C93.7157 82.4728 94.3486 82.1447 94.9392 82.3369C96.397 82.8056 97.2268 84.1508 97.1049 85.8478C96.997 87.3384 96.1392 88.9978 94.8173 89.6493C94.4001 91.2337 93.7251 92.5837 92.8111 93.6666C92.122 94.4822 91.4424 94.9978 91.1001 95.2322C90.7486 95.4713 89.8204 96.1135 88.4517 96.4369C88.086 96.5308 87.486 96.6338 86.7407 96.6338Z" fill="url(#paint1_linear_4_1607)"/>
<path d="M82.3109 99.4182C82.1422 99.4182 81.9735 99.3807 81.8141 99.301C81.2563 99.0244 81.0314 98.3493 81.3079 97.7916C81.5141 97.3698 81.8705 96.5307 81.8939 95.612C81.9032 95.2839 81.8611 95.1432 81.786 94.8667C81.7626 94.7822 81.7345 94.6933 81.711 94.5854C81.5563 93.9854 81.9171 93.3714 82.522 93.2167C83.1219 93.062 83.736 93.4229 83.8906 94.0277C83.9094 94.1028 83.9328 94.1777 83.9515 94.2528C84.05 94.6043 84.1624 94.9981 84.1437 95.6684C84.1062 97.0137 83.6139 98.1996 83.3233 98.7856C83.1219 99.1886 82.7235 99.4182 82.3109 99.4182Z" fill="url(#paint2_linear_4_1607)"/>
<path d="M90.9875 99.6807C90.5938 99.6807 90.2095 99.4745 90.0031 99.1041C89.5625 98.3167 89.0281 97.0838 88.9906 95.6728C88.9719 95.0025 89.0844 94.6041 89.1828 94.2572C89.1921 94.2244 89.2015 94.1916 89.2109 94.1587C89.3749 93.5587 89.9983 93.2071 90.5938 93.3759C91.1937 93.54 91.5454 94.1634 91.3765 94.7588C91.3671 94.7963 91.3578 94.8291 91.3484 94.8667C91.2687 95.1432 91.2312 95.2839 91.2406 95.612C91.264 96.5636 91.6484 97.4355 91.9671 98.0025C92.2718 98.5463 92.0797 99.2306 91.5359 99.5354C91.3625 99.6339 91.175 99.6807 90.9875 99.6807Z" fill="url(#paint3_linear_4_1607)"/>
<path d="M104.459 117.606H68.8532C68.2345 117.606 67.7282 117.104 67.7282 116.485C67.7188 113.935 67.8407 107.561 69.1157 103.44C69.4625 102.324 69.8844 101.41 70.4423 100.567C70.911 99.8588 72.2611 98.0823 74.6657 96.8588C76.8688 95.7384 78.9736 95.5697 80.3516 95.6307C80.6235 95.6401 80.8767 95.7479 81.0735 95.9354L86.511 101.04L92.2579 95.9166C92.45 95.7432 92.6985 95.6447 92.961 95.6307C94.3251 95.5745 96.4111 95.7385 98.5955 96.8353C99.1486 97.1119 99.3735 97.7916 99.097 98.3447C98.8204 98.8978 98.1407 99.1227 97.5876 98.8462C96.0313 98.0634 94.5314 97.8758 93.4486 97.8711L87.2422 103.403C86.8063 103.792 86.1499 103.782 85.7235 103.384L79.8501 97.8667C78.7532 97.8714 77.2485 98.0682 75.6829 98.8605C73.7564 99.8402 72.6875 101.246 72.3173 101.804C71.872 102.475 71.5486 103.182 71.2626 104.101C70.222 107.453 70.0157 112.698 69.9782 115.351H104.455C105.078 115.351 105.58 115.853 105.58 116.476C105.58 117.1 105.083 117.606 104.459 117.606Z" fill="url(#paint4_linear_4_1607)"/>
<path d="M75.7438 117.606C75.1204 117.606 74.6187 117.104 74.6187 116.481V108.104C74.6187 107.481 75.1202 106.979 75.7438 106.979C76.3672 106.979 76.8688 107.481 76.8688 108.104V116.481C76.8688 117.104 76.3672 117.606 75.7438 117.606Z" fill="url(#paint5_linear_4_1607)"/>
<path d="M135.875 117.606H66.125C65.5016 117.606 65 117.104 65 116.481C65 115.857 65.5015 115.356 66.125 115.356H135.875C136.499 115.356 137 115.857 137 116.481C137 117.104 136.499 117.606 135.875 117.606Z" fill="url(#paint6_linear_4_1607)"/>
<path d="M126.458 117.606H99.9829C96.9922 117.606 94.5595 115.173 94.5595 112.182C94.5595 111.559 95.061 111.057 95.6845 111.057H130.761C131.384 111.057 131.886 111.559 131.886 112.182C131.881 115.173 129.449 117.606 126.458 117.606ZM97.0156 113.307C97.4703 114.503 98.6281 115.356 99.9874 115.356H126.462C127.817 115.356 128.975 114.503 129.434 113.307H97.0156Z" fill="url(#paint7_linear_4_1607)"/>
<path d="M128.347 113.307H98.0891C97.4657 113.307 96.9641 112.806 96.9641 112.182V94.7917C96.9641 93.1371 98.3094 91.7917 99.9642 91.7917H126.472C128.127 91.7917 129.472 93.137 129.472 94.7917V112.182C129.472 112.806 128.97 113.307 128.347 113.307ZM99.214 111.057H127.222V94.7917C127.222 94.3792 126.884 94.0418 126.472 94.0418H99.9642C99.5516 94.0418 99.2142 94.3792 99.2142 94.7917L99.214 111.057Z" fill="url(#paint8_linear_4_1607)"/>
<path d="M108.172 87.0151C107.933 87.0151 107.694 86.94 107.487 86.7853L101.516 82.2198C101.239 82.0089 101.075 81.676 101.075 81.3245C101.075 80.973 101.239 80.6448 101.516 80.4292L107.492 75.8636C107.984 75.4886 108.692 75.5824 109.067 76.0745C109.442 76.5666 109.348 77.2745 108.856 77.6495L104.052 81.3198L108.856 84.9901C109.348 85.3651 109.447 86.0728 109.067 86.5651C108.847 86.8604 108.514 87.0151 108.172 87.0151Z" fill="url(#paint9_linear_4_1607)"/>
<path d="M118.264 87.0151C117.927 87.0151 117.589 86.8651 117.369 86.5745C116.994 86.0823 117.088 85.3745 117.58 84.9994L122.384 81.3292L117.58 77.6589C117.088 77.2838 116.989 76.5761 117.369 76.0839C117.744 75.5917 118.452 75.4979 118.944 75.873L124.92 80.4386C125.197 80.6494 125.361 80.9824 125.361 81.3339C125.361 81.6854 125.197 82.0136 124.92 82.2291L118.944 86.7947C118.742 86.9402 118.503 87.0151 118.264 87.0151Z" fill="url(#paint10_linear_4_1607)"/>
<path d="M111.266 89.4386C111.167 89.4386 111.064 89.4245 110.961 89.3964C110.361 89.2277 110.014 88.609 110.178 88.0089L114.083 74.0354C114.252 73.4355 114.87 73.0885 115.47 73.2527C116.07 73.4214 116.417 74.0401 116.253 74.6402L112.349 88.6137C112.213 89.1105 111.758 89.4386 111.266 89.4386Z" fill="url(#paint11_linear_4_1607)"/>
</g>
</g>
</g>
<defs>
<filter id="filter0_d_4_1607" x="0" y="0" width="202" height="202" filterUnits="userSpaceOnUse" color-interpolation-filters="sRGB">
<feFlood flood-opacity="0" result="BackgroundImageFix"/>
<feColorMatrix in="SourceAlpha" type="matrix" values="0 0 0 0 0 0 0 0 0 0 0 0 0 0 0 0 0 0 127 0" result="hardAlpha"/>
<feOffset dy="4"/>
<feGaussianBlur stdDeviation="6"/>
<feComposite in2="hardAlpha" operator="out"/>
<feColorMatrix type="matrix" values="0 0 0 0 0.00784314 0 0 0 0 0.65098 0 0 0 0 0.607843 0 0 0 0.1 0"/>
<feBlend mode="normal" in2="BackgroundImageFix" result="effect1_dropShadow_4_1607"/>
<feBlend mode="normal" in="SourceGraphic" in2="effect1_dropShadow_4_1607" result="shape"/>
</filter>
<linearGradient id="paint0_linear_4_1607" x1="65" y1="78.0457" x2="140.077" y2="88.149" gradientUnits="userSpaceOnUse">
<stop stop-color="#00CDC0"/>
<stop offset="1" stop-color="#02A69B"/>
</linearGradient>
<linearGradient id="paint1_linear_4_1607" x1="65" y1="78.0457" x2="140.077" y2="88.149" gradientUnits="userSpaceOnUse">
<stop stop-color="#00CDC0"/>
<stop offset="1" stop-color="#02A69B"/>
</linearGradient>
<linearGradient id="paint2_linear_4_1607" x1="65" y1="78.0457" x2="140.077" y2="88.149" gradientUnits="userSpaceOnUse">
<stop stop-color="#00CDC0"/>
<stop offset="1" stop-color="#02A69B"/>
</linearGradient>
<linearGradient id="paint3_linear_4_1607" x1="65" y1="78.0457" x2="140.077" y2="88.149" gradientUnits="userSpaceOnUse">
<stop stop-color="#00CDC0"/>
<stop offset="1" stop-color="#02A69B"/>
</linearGradient>
<linearGradient id="paint4_linear_4_1607" x1="65" y1="78.0457" x2="140.077" y2="88.149" gradientUnits="userSpaceOnUse">
<stop stop-color="#00CDC0"/>
<stop offset="1" stop-color="#02A69B"/>
</linearGradient>
<linearGradient id="paint5_linear_4_1607" x1="65" y1="78.0457" x2="140.077" y2="88.149" gradientUnits="userSpaceOnUse">
<stop stop-color="#00CDC0"/>
<stop offset="1" stop-color="#02A69B"/>
</linearGradient>
<linearGradient id="paint6_linear_4_1607" x1="65" y1="78.0457" x2="140.077" y2="88.149" gradientUnits="userSpaceOnUse">
<stop stop-color="#00CDC0"/>
<stop offset="1" stop-color="#02A69B"/>
</linearGradient>
<linearGradient id="paint7_linear_4_1607" x1="65" y1="78.0457" x2="140.077" y2="88.149" gradientUnits="userSpaceOnUse">
<stop stop-color="#00CDC0"/>
<stop offset="1" stop-color="#02A69B"/>
</linearGradient>
<linearGradient id="paint8_linear_4_1607" x1="65" y1="78.0457" x2="140.077" y2="88.149" gradientUnits="userSpaceOnUse">
<stop stop-color="#00CDC0"/>
<stop offset="1" stop-color="#02A69B"/>
</linearGradient>
<linearGradient id="paint9_linear_4_1607" x1="65" y1="78.0457" x2="140.077" y2="88.149" gradientUnits="userSpaceOnUse">
<stop stop-color="#00CDC0"/>
<stop offset="1" stop-color="#02A69B"/>
</linearGradient>
<linearGradient id="paint10_linear_4_1607" x1="65" y1="78.0457" x2="140.077" y2="88.149" gradientUnits="userSpaceOnUse">
<stop stop-color="#00CDC0"/>
<stop offset="1" stop-color="#02A69B"/>
</linearGradient>
<linearGradient id="paint11_linear_4_1607" x1="65" y1="78.0457" x2="140.077" y2="88.149" gradientUnits="userSpaceOnUse">
<stop stop-color="#00CDC0"/>
<stop offset="1" stop-color="#02A69B"/>
</linearGradient>
</defs>
</svg>
